<?xml version="1.0" standalone="no"?>
<svg xmlns:xlink="http://www.w3.org/1999/xlink" id="wave" style="transform:rotate(0deg); transition: 0.3s" viewBox="0 0 1440 100" version="1.1" xmlns="http://www.w3.org/2000/svg"><defs><linearGradient id="sw-gradient-0" x1="0" x2="0" y1="1" y2="0"><stop stop-color="rgba(99, 8, 8, 1)" offset="0%"/><stop stop-color="rgba(99, 8, 8, 1)" offset="100%"/></linearGradient></defs><path style="transform:translate(0, 0px); opacity:1" fill="url(#sw-gradient-0)" d="M0,50L80,41.7C160,33,320,17,480,21.7C640,27,800,53,960,55C1120,57,1280,33,1440,33.3C1600,33,1760,57,1920,60C2080,63,2240,47,2400,48.3C2560,50,2720,70,2880,75C3040,80,3200,70,3360,70C3520,70,3680,80,3840,70C4000,60,4160,30,4320,16.7C4480,3,4640,7,4800,6.7C4960,7,5120,3,5280,8.3C5440,13,5600,27,5760,26.7C5920,27,6080,13,6240,16.7C6400,20,6560,40,6720,55C6880,70,7040,80,7200,78.3C7360,77,7520,63,7680,51.7C7840,40,8000,30,8160,25C8320,20,8480,20,8640,16.7C8800,13,8960,7,9120,18.3C9280,30,9440,60,9600,65C9760,70,9920,50,10080,41.7C10240,33,10400,37,10560,40C10720,43,10880,47,11040,48.3C11200,50,11360,50,11440,50L11520,50L11520,100L11440,100C11360,100,11200,100,11040,100C10880,100,10720,100,10560,100C10400,100,10240,100,10080,100C9920,100,9760,100,9600,100C9440,100,9280,100,9120,100C8960,100,8800,100,8640,100C8480,100,8320,100,8160,100C8000,100,7840,100,7680,100C7520,100,7360,100,7200,100C7040,100,6880,100,6720,100C6560,100,6400,100,6240,100C6080,100,5920,100,5760,100C5600,100,5440,100,5280,100C5120,100,4960,100,4800,100C4640,100,4480,100,4320,100C4160,100,4000,100,3840,100C3680,100,3520,100,3360,100C3200,100,3040,100,2880,100C2720,100,2560,100,2400,100C2240,100,2080,100,1920,100C1760,100,1600,100,1440,100C1280,100,1120,100,960,100C800,100,640,100,480,100C320,100,160,100,80,100L0,100Z"/></svg>