<?xml version="1.0" standalone="no"?>
<svg xmlns:xlink="http://www.w3.org/1999/xlink" id="wave" style="transform:rotate(0deg); transition: 0.3s" viewBox="0 0 1440 100" version="1.1" xmlns="http://www.w3.org/2000/svg"><defs><linearGradient id="sw-gradient-0" x1="0" x2="0" y1="1" y2="0"><stop stop-color="rgba(99, 8, 8, 1)" offset="0%"/><stop stop-color="rgba(99, 8, 8, 1)" offset="100%"/></linearGradient></defs><path style="transform:translate(0, 0px); opacity:1" fill="url(#sw-gradient-0)" d="M0,30L48,31.7C96,33,192,37,288,31.7C384,27,480,13,576,6.7C672,0,768,0,864,5C960,10,1056,20,1152,21.7C1248,23,1344,17,1440,25C1536,33,1632,57,1728,68.3C1824,80,1920,80,2016,71.7C2112,63,2208,47,2304,40C2400,33,2496,37,2592,33.3C2688,30,2784,20,2880,23.3C2976,27,3072,43,3168,45C3264,47,3360,33,3456,28.3C3552,23,3648,27,3744,35C3840,43,3936,57,4032,60C4128,63,4224,57,4320,48.3C4416,40,4512,30,4608,26.7C4704,23,4800,27,4896,33.3C4992,40,5088,50,5184,46.7C5280,43,5376,27,5472,20C5568,13,5664,17,5760,26.7C5856,37,5952,53,6048,51.7C6144,50,6240,30,6336,21.7C6432,13,6528,17,6624,18.3C6720,20,6816,20,6864,20L6912,20L6912,100L6864,100C6816,100,6720,100,6624,100C6528,100,6432,100,6336,100C6240,100,6144,100,6048,100C5952,100,5856,100,5760,100C5664,100,5568,100,5472,100C5376,100,5280,100,5184,100C5088,100,4992,100,4896,100C4800,100,4704,100,4608,100C4512,100,4416,100,4320,100C4224,100,4128,100,4032,100C3936,100,3840,100,3744,100C3648,100,3552,100,3456,100C3360,100,3264,100,3168,100C3072,100,2976,100,2880,100C2784,100,2688,100,2592,100C2496,100,2400,100,2304,100C2208,100,2112,100,2016,100C1920,100,1824,100,1728,100C1632,100,1536,100,1440,100C1344,100,1248,100,1152,100C1056,100,960,100,864,100C768,100,672,100,576,100C480,100,384,100,288,100C192,100,96,100,48,100L0,100Z"/></svg>